<?xml version="1.0" encoding="utf-8"?>
<!-- Generator: Adobe Illustrator 25.0.0, SVG Export Plug-In . SVG Version: 6.00 Build 0)  -->
<svg version="1.1" id="Layer_1" xmlns="http://www.w3.org/2000/svg" xmlns:xlink="http://www.w3.org/1999/xlink" x="0px" y="0px"
	 viewBox="0 0 684 281" style="enable-background:new 0 0 684 281;" xml:space="preserve">
<style type="text/css">
	.st0{fill:#3F3F3F;}
	.st1{fill:#206AD2;}
	.st2{fill:#DD2829;}
	.st3{fill-rule:evenodd;clip-rule:evenodd;fill:#206AD2;}
	.st4{fill-rule:evenodd;clip-rule:evenodd;fill:#DD2829;}
</style>
<path class="st0" d="M0,266.3v-43.9h12.5c3.8,0,6.8,0.9,9,2.8c2.2,1.9,3.3,4.3,3.3,7.3c0,2.5-0.7,4.7-2,6.5
	c-1.3,1.8-3.2,3.1-5.6,3.9v0.1c3,0.3,5.3,1.5,7.1,3.4c1.8,1.9,2.7,4.3,2.7,7.4c0,3.8-1.3,6.8-4,9.1c-2.7,2.3-6.1,3.5-10.2,3.5H0
	V266.3z M5.1,227v14.2h5.3c2.8,0,5-0.7,6.6-2c1.6-1.4,2.4-3.3,2.4-5.7c0-4.3-2.8-6.4-8.4-6.4H5.1V227z M5.1,245.8v15.8h7
	c3,0,5.4-0.7,7-2.1c1.7-1.4,2.5-3.4,2.5-5.9c0-5.2-3.5-7.8-10.6-7.8H5.1L5.1,245.8z"/>
<path class="st0" d="M61.7,251.8H39.6c0.1,3.5,1,6.2,2.8,8.1c1.8,1.9,4.3,2.8,7.4,2.8c3.5,0,6.8-1.2,9.7-3.5v4.7
	c-2.8,2-6.4,3-10.9,3c-4.4,0-7.9-1.4-10.4-4.3c-2.5-2.8-3.8-6.9-3.8-12c0-4.9,1.4-8.9,4.1-11.9c2.8-3.1,6.2-4.6,10.3-4.6
	s7.3,1.3,9.5,4c2.2,2.7,3.4,6.3,3.4,11V251.8z M56.6,247.6c0-2.9-0.7-5.2-2.1-6.8c-1.4-1.6-3.3-2.4-5.7-2.4s-4.4,0.8-6,2.5
	c-1.7,1.7-2.7,3.9-3.1,6.6h16.9V247.6z"/>
<path class="st0" d="M122.9,266.3h-5.1v-20H95.1v20H90v-43.9h5.1v19.3h22.7v-19.3h5.1V266.3L122.9,266.3z"/>
<path class="st0" d="M160.3,251.8h-22.1c0.1,3.5,1,6.2,2.8,8.1s4.3,2.8,7.4,2.8c3.5,0,6.8-1.2,9.7-3.5v4.7c-2.8,2-6.4,3-10.9,3
	c-4.4,0-7.9-1.4-10.4-4.3c-2.5-2.8-3.8-6.9-3.8-12c0-4.9,1.4-8.9,4.1-11.9c2.8-3.1,6.2-4.6,10.3-4.6c4.1,0,7.3,1.3,9.5,4
	c2.2,2.7,3.4,6.3,3.4,11V251.8z M155.2,247.6c0-2.9-0.7-5.2-2.1-6.8c-1.4-1.6-3.3-2.4-5.7-2.4c-2.4,0-4.4,0.8-6,2.5
	c-1.7,1.7-2.7,3.9-3.1,6.6h16.9V247.6z"/>
<path class="st0" d="M191.7,266.3h-5v-4.9h-0.1c-2.2,3.8-5.4,5.6-9.6,5.6c-3.1,0-5.6-0.8-7.3-2.5c-1.8-1.7-2.6-3.8-2.6-6.6
	c0-5.9,3.4-9.3,10.3-10.2l9.4-1.3c0-5.3-2.2-8-6.5-8c-3.8,0-7.2,1.3-10.2,3.9v-5.1c3.1-2,6.6-2.9,10.6-2.9c7.4,0,11,3.9,11,11.7
	V266.3L191.7,266.3z M186.7,250.4l-7.6,1c-2.3,0.3-4.1,0.9-5.3,1.7c-1.2,0.8-1.8,2.3-1.8,4.4c0,1.5,0.5,2.8,1.6,3.8
	c1.1,1,2.5,1.5,4.4,1.5c2.5,0,4.5-0.9,6.2-2.6c1.6-1.7,2.4-4,2.4-6.6L186.7,250.4z"/>
<path class="st0" d="M207.5,266.3h-5v-46.4h5V266.3z"/>
<path class="st0" d="M233.6,265.9c-1.2,0.7-2.7,1-4.7,1c-5.5,0-8.2-3.1-8.2-9.2v-18.5h-5.4v-4.3h5.4v-7.7l5-1.6v9.3h7.9v4.3h-7.9
	v17.7c0,2.1,0.4,3.6,1.1,4.5s1.9,1.3,3.5,1.3c1.3,0,2.4-0.3,3.3-1V265.9z"/>
<path class="st0" d="M267.6,266.3h-5v-18.1c0-6.5-2.4-9.8-7.3-9.8c-2.4,0-4.5,0.9-6.2,2.8c-1.7,1.9-2.5,4.3-2.5,7.3v17.8h-5v-46.4h5
	v20.3h0.1c2.4-4,5.8-5.9,10.3-5.9c7.1,0,10.6,4.3,10.6,12.8V266.3z"/>
<path class="st0" d="M303.4,234.9L289,271.3c-2.6,6.5-6.2,9.7-10.8,9.7c-1.3,0-2.4-0.1-3.3-0.4v-4.5c1.1,0.4,2.1,0.6,3,0.6
	c2.5,0,4.4-1.5,5.7-4.5l2.5-5.9L273.9,235h5.6l8.5,24.1c0.1,0.3,0.3,1.1,0.6,2.4h0.2c0.1-0.5,0.3-1.3,0.6-2.3l8.9-24.2h5.1V234.9z"
	/>
<path class="st0" d="M314.8,259.3l-4.9,15.1h-3.6l3.6-15.1H314.8z"/>
<path class="st0" d="M344.3,266.3v-43.9h12.5c3.8,0,6.8,0.9,9,2.8c2.2,1.9,3.3,4.3,3.3,7.3c0,2.5-0.7,4.7-2,6.5
	c-1.3,1.8-3.2,3.1-5.6,3.9v0.1c3,0.3,5.3,1.5,7.1,3.4c1.8,1.9,2.7,4.3,2.7,7.4c0,3.8-1.3,6.8-4,9.1c-2.7,2.3-6.1,3.5-10.2,3.5h-12.8
	V266.3z M349.5,227v14.2h5.3c2.8,0,5-0.7,6.6-2c1.6-1.4,2.4-3.3,2.4-5.7c0-4.3-2.8-6.4-8.4-6.4h-5.9V227z M349.5,245.8v15.8h7
	c3,0,5.4-0.7,7-2.1c1.7-1.4,2.5-3.4,2.5-5.9c0-5.2-3.5-7.8-10.6-7.8H349.5L349.5,245.8z"/>
<path class="st0" d="M406.1,251.8H384c0.1,3.5,1,6.2,2.8,8.1c1.8,1.9,4.3,2.8,7.4,2.8c3.5,0,6.8-1.2,9.7-3.5v4.7
	c-2.8,2-6.4,3-10.9,3c-4.4,0-7.9-1.4-10.4-4.3c-2.5-2.8-3.8-6.9-3.8-12c0-4.9,1.4-8.9,4.1-11.9c2.8-3.1,6.2-4.6,10.3-4.6
	c4.1,0,7.3,1.3,9.5,4c2.2,2.7,3.4,6.3,3.4,11V251.8z M401,247.6c0-2.9-0.7-5.2-2.1-6.8c-1.4-1.6-3.3-2.4-5.7-2.4
	c-2.4,0-4.4,0.8-6,2.5c-1.6,1.7-2.7,3.9-3.1,6.6H401V247.6z"/>
<path class="st0" d="M467.3,266.3h-5.1v-20h-22.7v20h-5.1v-43.9h5.1v19.3h22.7v-19.3h5.1V266.3z"/>
<path class="st0" d="M501.9,266.3h-5v-4.9h-0.1c-2.2,3.8-5.4,5.6-9.6,5.6c-3.1,0-5.6-0.8-7.3-2.5c-1.8-1.7-2.6-3.8-2.6-6.6
	c0-5.9,3.4-9.3,10.3-10.2l9.4-1.3c0-5.3-2.2-8-6.5-8c-3.8,0-7.2,1.3-10.2,3.9v-5.1c3.1-2,6.6-2.9,10.6-2.9c7.4,0,11,3.9,11,11.7
	V266.3z M496.9,250.4l-7.6,1c-2.3,0.3-4.1,0.9-5.3,1.7c-1.2,0.8-1.8,2.3-1.8,4.4c0,1.5,0.5,2.8,1.6,3.8c1.1,1,2.5,1.5,4.4,1.5
	c2.5,0,4.5-0.9,6.2-2.6c1.6-1.7,2.4-4,2.4-6.6L496.9,250.4z"/>
<path class="st0" d="M517.9,261.7h-0.1v18.9h-5v-45.8h5v5.5h0.1c2.5-4.2,6.1-6.2,10.8-6.2c4,0,7.2,1.4,9.5,4.2s3.4,6.6,3.4,11.3
	c0,5.2-1.3,9.4-3.8,12.6c-2.5,3.2-6,4.7-10.5,4.7C523.2,267,520.1,265.2,517.9,261.7z M517.7,249.1v4.4c0,2.6,0.8,4.8,2.5,6.6
	c1.7,1.8,3.8,2.7,6.4,2.7c3,0,5.4-1.2,7.1-3.5c1.7-2.3,2.6-5.6,2.6-9.7c0-3.5-0.8-6.2-2.4-8.2c-1.6-2-3.8-3-6.5-3c-2.9,0-5.3,1-7,3
	C518.6,243.5,517.7,246,517.7,249.1z"/>
<path class="st0" d="M556.1,261.7L556.1,261.7l-0.1,18.9h-5v-45.8h5v5.5h0.1c2.5-4.2,6.1-6.2,10.8-6.2c4,0,7.2,1.4,9.5,4.2
	c2.3,2.8,3.4,6.6,3.4,11.3c0,5.2-1.3,9.4-3.8,12.6c-2.5,3.2-6,4.7-10.5,4.7C561.4,267,558.3,265.2,556.1,261.7z M556,249.1v4.4
	c0,2.6,0.8,4.8,2.5,6.6c1.7,1.8,3.8,2.7,6.4,2.7c3,0,5.4-1.2,7.1-3.5c1.7-2.3,2.6-5.6,2.6-9.7c0-3.5-0.8-6.2-2.4-8.2
	c-1.6-2-3.8-3-6.5-3c-2.9,0-5.3,1-7,3C556.8,243.5,556,246,556,249.1z"/>
<path class="st0" d="M614.1,234.9l-14.4,36.4c-2.6,6.5-6.2,9.7-10.8,9.7c-1.3,0-2.4-0.1-3.3-0.4v-4.5c1.1,0.4,2.1,0.6,3,0.6
	c2.5,0,4.4-1.5,5.7-4.5l2.5-5.9L584.6,235h5.6l8.5,24.1c0.1,0.3,0.3,1.1,0.6,2.4h0.2c0.1-0.5,0.3-1.3,0.6-2.3L609,235h5.1V234.9z"/>
<g>
	<path class="st1" d="M0.3,87.6h42.8l19.2,74.3h0.3l19.2-74.3h42.8V199H97.2v-84.6h-0.3L73.5,199H51.3l-23.4-84.6h-0.3V199H0.3V87.6
		z"/>
	<path class="st1" d="M151.8,87.6h88.8v23.3h-59.8v19.5h54.6v22.5h-54.6V174h61.3v25h-90.3V87.6z"/>
	<path class="st1" d="M265.9,87.6h47.9c34.2,0,54.6,20.8,54.6,55.3c0,36.5-20.8,56.2-54.6,56.2h-47.9V87.6z M294.9,174h13.7
		c22-0.5,30.7-9.1,30.7-31.4c0-20.3-10.9-30.1-30.7-30.1h-13.7V174z"/>
	<path class="st2" d="M442.2,85.2c35.1,0,54.9,25.8,54.9,58.1s-19.8,58.1-54.9,58.1s-54.9-25.8-54.9-58.1S407.1,85.2,442.2,85.2z
		 M442.2,176.4c18.7,0,25.9-16.5,25.9-33.1c0-16.5-7.2-33.1-25.9-33.1c-18.7,0-25.9,16.5-25.9,33.1S423.5,176.4,442.2,176.4z"/>
	<path class="st2" d="M519.8,86.5h29.8l38.7,68.7h0.3V86.5h27.3v111.4h-29.8l-38.7-69.5h-0.3v69.5h-27.3V86.5z"/>
	<path class="st3" d="M670.9,35.2c-7.6-8.2-18.7-14.4-30.1-14.2c-13.1,0.3-24.8,7-32.8,13.2c-0.4,0.3-0.9,0.7-1.5,1.2
		c-1.7,1.4-3.2,2.7-4.5,3.9c-4,3.6-8.4,7.5-8.4,7.5l2.5-1.8c0.8-0.5,1.6-1,2.4-1.5c2.6-1.3,5.3-2.4,8-3.3
		c18.7-6.3,37.6-1.4,49.1,15.3c12.9,18.9,10.5,47.7-0.1,67c-5.8,10.6-14.3,19.5-24.1,26.5c0,0-0.1,0.1-7.3,5.3
		c24-11.6,37.9-29.3,38.4-29.9c7.5-8.9,13.7-18.9,17.5-29.9C686.8,75.2,685.5,50.8,670.9,35.2z"/>
	<path class="st4" d="M529.1,60C553.3,15.8,593,46.5,593,46.5s6.5-7,10-10.5C583.8,14.4,543.1,13.7,529.1,60z"/>
</g>
</svg>
